<?xml version='1.0' encoding='utf-8'?>
<svg xmlns:xlink="http://www.w3.org/1999/xlink" xmlns="http://www.w3.org/2000/svg" enable-background="new 0 0 960 960" version="1.1" viewBox="0 0 960 960"> <style type="text/css">.st0{fill:#B3E2E5;} .st1{fill:#FFFFFF;} .st2{clip-path:url(#e);fill:#FFFFFF;} .st3{clip-path:url(#c);fill:#FFFFFF;} .st4{clip-path:url(#a);fill:#009DCB;} .st5{fill:#EAEAEA;} .st6{fill:none;stroke:#FFFFFF;stroke-width:11.3511;stroke-linecap:round;stroke-miterlimit:10;}</style> <path class="st0" d="m458.1 778.4c-116 0-210.4-94.4-210.4-210.4v-176.1c0-116 94.4-210.4 210.4-210.4h43.8c116 0 210.4 94.4 210.4 210.4v176.1c0 116-94.4 210.4-210.4 210.4h-43.8z"/> <path class="st1" d="m501.9 204.3c103.6 0 187.7 84 187.7 187.7v176.1c0 103.6-84 187.7-187.7 187.7h-43.8c-103.6 0-187.7-84-187.7-187.7v-176.2c0-103.6 84-187.7 187.7-187.7h43.8m0-45.3h-43.8c-31.4 0-62 6.2-90.7 18.3-27.8 11.7-52.7 28.5-74.1 49.9s-38.2 46.3-49.9 74.1c-12.2 28.8-18.4 59.3-18.4 90.7v176.1c0 31.4 6.2 62 18.3 90.7 11.7 27.8 28.5 52.7 49.9 74.1s46.3 38.2 74.1 49.9c28.8 12.2 59.3 18.3 90.7 18.3h43.8c31.4 0 62-6.2 90.7-18.3 27.8-11.7 52.7-28.5 74.1-49.9s38.2-46.3 49.9-74.1c12.2-28.8 18.3-59.3 18.3-90.7v-176.1c0-31.4-6.2-62-18.3-90.7-11.7-27.8-28.5-52.7-49.9-74.1s-46.3-38.2-74.1-49.9c-28.6-12.2-59.2-18.3-90.6-18.3z"/> <defs> <path id="f" d="m501.9 755.7h-43.8c-103.6 0-187.7-84-187.7-187.7v-176.1c0-103.6 84-187.7 187.7-187.7h43.8c103.6 0 187.7 84 187.7 187.7v176.1c0 103.7-84.1 187.7-187.7 187.7z"/> </defs> <clipPath id="e"> <use xlink:href="#f"/> </clipPath> <path class="st2" d="m758.8 348.4c-6.2 0-11.9 1.7-16.9 4.6-2.3-21.4-20.4-38-42.4-38-21.9 0-39.9 16.5-42.3 37.8-4.9-2.8-10.5-4.4-16.5-4.4-18.6 0-33.6 15.1-33.6 33.6 0 18.6 15.1 33.6 33.6 33.6h117.4s0.5 0 0.7 0c18.6 0 33.6-15.1 33.6-33.6 0-18.6-15.1-33.6-33.6-33.6z"/> <defs> <path id="d" d="m501.9 755.7h-43.8c-103.6 0-187.7-84-187.7-187.7v-176.1c0-103.6 84-187.7 187.7-187.7h43.8c103.6 0 187.7 84 187.7 187.7v176.1c0 103.7-84.1 187.7-187.7 187.7z"/> </defs> <clipPath id="c"> <use xlink:href="#d"/> </clipPath> <path class="st3" d="m535.8 467.5c0-0.1-0.1-0.2-0.1-0.4v-0.1c-4.3-13.4-16.9-23.1-31.7-23.1-1.6 0-3.1 0.1-4.6 0.4 1.4-4.3 2.2-8.8 2.2-13.5 0-23.7-19.2-42.9-42.9-42.9-13 0-24.6 5.8-32.5 15-7.9-24.8-31.1-42.8-58.5-42.8-32.2 0-58.6 24.9-61.1 56.5-9.8-12.5-25-20.5-42.1-20.5-29.5 0-53.5 23.9-53.5 53.5 0 0.9 0.1 1.8 0.1 2.7h-0.1l0.1 1.1c0.1 1.4 0.2 2.7 0.4 4l0.1 1.1c0 38.7 36.1 68 74.8 68h196.6c30.2-0.1 62.4-31.2 52.8-59zm-114.2-15.3h-0.8c0.1-0.2 0.3-0.4 0.4-0.7 0.1 0.2 0.2 0.4 0.4 0.7z"/> <defs> <path id="b" d="m501.9 755.7h-43.8c-103.6 0-187.7-84-187.7-187.7v-176.1c0-103.6 84-187.7 187.7-187.7h43.8c103.6 0 187.7 84 187.7 187.7v176.1c0 103.7-84.1 187.7-187.7 187.7z"/> </defs> <clipPath id="a"> <use xlink:href="#b"/> </clipPath> <polyline class="st4" points="573.9 844.6 335.1 557.9 426.6 557.9 666.7 694.3"/> <path class="st5" d="m291.1 306.4h377.9c-31.1-60.6-94.2-102.2-167.1-102.2h-43.8c-72.8 0.1-135.9 41.6-167 102.2z"/> <line class="st6" x1="452.3" x2="522.7" y1="273.1" y2="273.1"/> </svg>